<svg xmlns="http://www.w3.org/2000/svg" viewBox="0 0 378.03 387.61"><defs><style>.cls-1{fill:#f16667;}.cls-2{fill:#ffce34;}.cls-3{fill:#50b648;}</style></defs><g id="Layer_2" data-name="Layer 2"><g id="Layer_1-2" data-name="Layer 1"><path d="M43.19,325,2,230.24a24.09,24.09,0,0,1,12.48-31.69L305.16,72.17a24.06,24.06,0,0,1,31.68,12.48L378,179.37Z"/><rect x="170.67" y="253.18" width="128.05" height="113.62" transform="translate(-104.14 119.29) rotate(-23.5)"/><rect x="69.64" y="20.82" width="128.05" height="113.62" transform="translate(-19.87 59.74) rotate(-23.5)"/><rect class="cls-1" x="20.78" y="211.06" width="27.93" height="27.93" rx="13.97" transform="translate(-86.85 32.52) rotate(-23.5)"/><rect class="cls-2" x="53.38" y="196.89" width="27.93" height="27.93" rx="13.97" transform="translate(-78.49 44.34) rotate(-23.5)"/><rect class="cls-3" x="85.58" y="182.31" width="28.73" height="28.73" rx="14.37" transform="translate(-70.14 56.17) rotate(-23.5)"/></g></g></svg>